<svg width="38" height="37" viewBox="0 0 38 37" fill="none" xmlns="http://www.w3.org/2000/svg">
<path d="M6.93857 0C3.09491 0 0 3.00328 0 6.73314V30.1418C0 33.8717 3.09491 36.875 6.93857 36.875H20.013V22.4592H16.0847V17.269H20.013V12.8348C20.013 9.35104 22.334 6.15236 27.6806 6.15236C29.8454 6.15236 31.4462 6.35403 31.4462 6.35403L31.3203 11.2008C31.3203 11.2008 29.6877 11.1858 27.9062 11.1858C25.9782 11.1858 25.669 12.0479 25.669 13.479V17.269H31.4735L31.2206 22.4592H25.669V36.875H31.0614C34.9051 36.875 38 33.8717 38 30.1419V6.73318C38 3.00332 34.9051 3.68749e-05 31.0614 3.68749e-05H6.93853L6.93857 0Z" fill="#5F2EEA"/>
</svg>
