<svg width="38" height="37" viewBox="0 0 38 37" fill="none" xmlns="http://www.w3.org/2000/svg">
<path d="M22.9395 18.9021C22.9395 16.9001 21.2594 15.271 19.1945 15.271C17.1298 15.271 15.4498 16.9001 15.4498 18.9021C15.4498 20.9047 17.1298 22.5335 19.1945 22.5335C21.2594 22.5335 22.9395 20.9047 22.9395 18.9021ZM28.5032 0H9.49676C4.26024 0 0 4.1313 0 9.2092V11.7751H13.9745C15.4491 10.7566 17.25 10.1548 19.1945 10.1548C21.139 10.1548 22.9402 10.7566 24.4148 11.7751H38V9.2092C38 4.13126 33.7397 0 28.5032 0ZM32.3493 8.75866C32.3493 9.3214 31.8746 9.78191 31.2941 9.78191H28.0338C27.4533 9.78191 26.9786 9.3214 26.9786 8.75866V5.59682C26.9786 5.03411 27.4533 4.57357 28.0338 4.57357H31.2941C31.8746 4.57357 32.3493 5.03404 32.3493 5.59682V8.75866ZM28.2154 18.9021C28.2154 23.7259 24.1684 27.6496 19.1945 27.6496C14.2203 27.6496 10.1737 23.7259 10.1737 18.9021C10.1737 17.5741 10.4822 16.3147 11.0307 15.1859H0V27.7908C0 32.8691 4.26024 37 9.49676 37H28.5033C33.7398 37 38 32.869 38 27.7908V15.1859H27.3584C27.9069 16.3147 28.2154 17.5741 28.2154 18.9021Z" fill="#5F2EEA"/>
</svg>
