<svg width="38" height="37" viewBox="0 0 38 37" fill="none" xmlns="http://www.w3.org/2000/svg">
<path d="M33.9286 0H4.07143C2.99162 0 1.95603 0.417665 1.19249 1.16111C0.428953 1.90456 0 2.91289 0 3.96429L0 33.0357C0 34.0871 0.428953 35.0954 1.19249 35.8389C1.95603 36.5823 2.99162 37 4.07143 37H33.9286C35.0084 37 36.044 36.5823 36.8075 35.8389C37.571 35.0954 38 34.0871 38 33.0357V3.96429C38 2.91289 37.571 1.90456 36.8075 1.16111C36.044 0.417665 35.0084 0 33.9286 0ZM32.5383 25.3855L31.266 30.7538C31.2014 31.0267 31.0437 31.2703 30.8186 31.4447C30.5936 31.6191 30.3144 31.7142 30.0268 31.7143C16.4554 31.7143 5.42857 21.0016 5.42857 7.76339C5.43867 7.48594 5.53996 7.21896 5.71754 7.00175C5.89512 6.78454 6.13961 6.62856 6.41504 6.55676L11.9284 5.31792C12.0225 5.29856 12.1182 5.28778 12.2143 5.28571C12.4603 5.29781 12.6986 5.37381 12.9042 5.50582C13.1099 5.63783 13.2756 5.82105 13.384 6.03645L15.9286 11.8177C15.9909 11.9736 16.0256 12.1386 16.0312 12.3058C16.0105 12.6725 15.8431 13.0168 15.5647 13.2647L12.3508 15.8249C14.2982 19.8437 17.62 23.0781 21.7474 24.9742L24.3768 21.8449C24.6314 21.5739 24.985 21.4108 25.3616 21.3906C25.5333 21.396 25.7028 21.4298 25.8629 21.4906L31.8004 23.9682C32.0217 24.0736 32.21 24.2349 32.3456 24.4352C32.4812 24.6355 32.5592 24.8675 32.5714 25.1071C32.5697 25.2007 32.5587 25.294 32.5383 25.3855Z" fill="#5F2EEA"/>
</svg>
