<svg width="38" height="37" viewBox="0 0 38 37" fill="none" xmlns="http://www.w3.org/2000/svg">
<path d="M19 7.49911C12.8335 7.49911 7.82054 12.3801 7.81205 18.3844C7.81205 20.4408 8.4058 22.4478 9.52545 24.1739L9.78839 24.5868L8.66027 28.6007L12.8929 27.5187L13.3 27.7583C15.0134 28.7493 16.9812 29.2779 18.9915 29.2779H19C25.158 29.2779 30.3067 24.3969 30.3067 18.3926C30.3067 15.4855 29.0174 12.7518 26.9054 10.6953C24.7848 8.63058 21.9857 7.49911 19 7.49911ZM25.5737 23.0589C25.2937 23.827 23.9536 24.5208 23.3089 24.6116C22.2402 24.7685 21.4089 24.6859 19.2799 23.794C15.9125 22.3734 13.7071 19.0699 13.5375 18.8551C13.3679 18.6404 12.1634 17.0795 12.1634 15.469C12.1634 13.8585 13.0286 13.0656 13.3424 12.7353C13.6478 12.4049 14.0125 12.3223 14.2415 12.3223C14.4621 12.3223 14.6911 12.3223 14.8862 12.3306C15.0897 12.3388 15.3696 12.2563 15.6411 12.8922C15.921 13.5446 16.5911 15.1551 16.6759 15.3203C16.7607 15.4855 16.8201 15.6754 16.7013 15.8902C16.0567 17.1455 15.3696 17.096 15.7174 17.6741C17.0152 19.8462 18.3129 20.5978 20.2893 21.5641C20.6286 21.7292 20.8237 21.7045 21.0187 21.4815C21.2138 21.2667 21.8585 20.5234 22.079 20.2013C22.2996 19.871 22.5286 19.9288 22.8339 20.0362C23.1393 20.1435 24.7933 20.9364 25.1326 21.1016C25.4719 21.2667 25.6924 21.3493 25.7772 21.4815C25.8536 21.6384 25.8536 22.2991 25.5737 23.0589ZM33.9286 0H4.07143C1.82366 0 0 1.77567 0 3.96429V33.0357C0 35.2243 1.82366 37 4.07143 37H33.9286C36.1763 37 38 35.2243 38 33.0357V3.96429C38 1.77567 36.1763 0 33.9286 0ZM18.9915 31.483C16.7353 31.483 14.5214 30.9297 12.5621 29.8891L5.42857 31.7143L7.33705 24.9254C6.15804 22.9433 5.53884 20.6886 5.53884 18.3761C5.54732 11.1578 11.5781 5.28571 18.9915 5.28571C22.5879 5.28571 25.9638 6.64844 28.5085 9.12612C31.0446 11.6038 32.5714 14.8908 32.5714 18.3926C32.5714 25.6109 26.4049 31.483 18.9915 31.483Z" fill="#5F2EEA"/>
</svg>
